<svg width="540" height="168" viewBox="0 0 540 168" fill="none" xmlns="http://www.w3.org/2000/svg">
<path d="M10.1084 125.709L8.14844 120.005L6.06543 125.709H10.1084ZM7.23438 118.089H9.21191L13.8965 131H11.9805L10.6709 127.133H5.56445L4.16699 131H2.37402L7.23438 118.089ZM15.3203 118.089H16.9023V131H15.3203V118.089ZM19.3281 118.089H20.9102V131H19.3281V118.089ZM28.3018 118.045H29.8838V122.861C30.2588 122.387 30.5957 122.053 30.8945 121.859C31.4043 121.525 32.04 121.358 32.8018 121.358C34.167 121.358 35.0928 121.836 35.5791 122.791C35.8428 123.312 35.9746 124.036 35.9746 124.962V131H34.3486V125.067C34.3486 124.376 34.2607 123.869 34.085 123.547C33.7979 123.031 33.2588 122.773 32.4678 122.773C31.8115 122.773 31.2168 122.999 30.6836 123.45C30.1504 123.901 29.8838 124.754 29.8838 126.008V131H28.3018V118.045ZM39.5342 128.495C39.5342 128.952 39.7012 129.312 40.0352 129.576C40.3691 129.84 40.7646 129.972 41.2217 129.972C41.7783 129.972 42.3174 129.843 42.8389 129.585C43.7178 129.157 44.1572 128.457 44.1572 127.484V126.21C43.9639 126.333 43.7148 126.436 43.4102 126.518C43.1055 126.6 42.8066 126.658 42.5137 126.693L41.5557 126.816C40.9814 126.893 40.5508 127.013 40.2637 127.177C39.7773 127.452 39.5342 127.892 39.5342 128.495ZM43.3662 125.296C43.7295 125.249 43.9727 125.097 44.0957 124.839C44.166 124.698 44.2012 124.496 44.2012 124.232C44.2012 123.693 44.0078 123.304 43.6211 123.063C43.2402 122.817 42.6924 122.694 41.9775 122.694C41.1514 122.694 40.5654 122.917 40.2197 123.362C40.0264 123.608 39.9004 123.975 39.8418 124.461H38.3652C38.3945 123.301 38.7695 122.495 39.4902 122.044C40.2168 121.587 41.0576 121.358 42.0127 121.358C43.1201 121.358 44.0195 121.569 44.7109 121.991C45.3965 122.413 45.7393 123.069 45.7393 123.96V129.383C45.7393 129.547 45.7715 129.679 45.8359 129.778C45.9062 129.878 46.0498 129.928 46.2666 129.928C46.3369 129.928 46.416 129.925 46.5039 129.919C46.5918 129.907 46.6855 129.893 46.7852 129.875V131.044C46.5391 131.114 46.3516 131.158 46.2227 131.176C46.0938 131.193 45.918 131.202 45.6953 131.202C45.1504 131.202 44.7549 131.009 44.5088 130.622C44.3799 130.417 44.2891 130.127 44.2363 129.752C43.9141 130.174 43.4512 130.54 42.8477 130.851C42.2441 131.161 41.5791 131.316 40.8525 131.316C39.9795 131.316 39.2646 131.053 38.708 130.525C38.1572 129.992 37.8818 129.327 37.8818 128.53C37.8818 127.657 38.1543 126.98 38.6992 126.5C39.2441 126.02 39.959 125.724 40.8438 125.612L43.3662 125.296ZM48.3408 121.587H49.8438V122.923C50.2891 122.372 50.7607 121.977 51.2588 121.736C51.7568 121.496 52.3105 121.376 52.9199 121.376C54.2559 121.376 55.1582 121.842 55.627 122.773C55.8848 123.283 56.0137 124.013 56.0137 124.962V131H54.4053V125.067C54.4053 124.493 54.3203 124.03 54.1504 123.679C53.8691 123.093 53.3594 122.8 52.6211 122.8C52.2461 122.8 51.9385 122.838 51.6982 122.914C51.2646 123.043 50.8838 123.301 50.5557 123.688C50.292 123.998 50.1191 124.32 50.0371 124.654C49.9609 124.982 49.9229 125.454 49.9229 126.069V131H48.3408V121.587ZM59.3623 126.403C59.3623 127.411 59.5762 128.255 60.0039 128.935C60.4316 129.614 61.1172 129.954 62.0605 129.954C62.793 129.954 63.3936 129.641 63.8623 129.014C64.3369 128.381 64.5742 127.476 64.5742 126.298C64.5742 125.108 64.3311 124.229 63.8447 123.661C63.3584 123.087 62.7578 122.8 62.043 122.8C61.2461 122.8 60.5986 123.104 60.1006 123.714C59.6084 124.323 59.3623 125.22 59.3623 126.403ZM61.7441 121.42C62.4648 121.42 63.0684 121.572 63.5547 121.877C63.8359 122.053 64.1553 122.36 64.5127 122.8V118.045H66.0332V131H64.6094V129.69C64.2402 130.271 63.8037 130.689 63.2998 130.947C62.7959 131.205 62.2188 131.334 61.5684 131.334C60.5195 131.334 59.6113 130.895 58.8438 130.016C58.0762 129.131 57.6924 127.956 57.6924 126.491C57.6924 125.12 58.041 123.934 58.7383 122.932C59.4414 121.924 60.4434 121.42 61.7441 121.42ZM68.3799 121.587H69.9443V122.923C70.3193 122.46 70.6592 122.123 70.9639 121.912C71.4854 121.555 72.0771 121.376 72.7393 121.376C73.4893 121.376 74.0928 121.561 74.5498 121.93C74.8076 122.141 75.042 122.451 75.2529 122.861C75.6045 122.357 76.0176 121.985 76.4922 121.745C76.9668 121.499 77.5 121.376 78.0918 121.376C79.3574 121.376 80.2188 121.833 80.6758 122.747C80.9219 123.239 81.0449 123.901 81.0449 124.733V131H79.4014V124.461C79.4014 123.834 79.2432 123.403 78.9268 123.169C78.6162 122.935 78.2354 122.817 77.7842 122.817C77.1631 122.817 76.627 123.025 76.1758 123.441C75.7305 123.857 75.5078 124.552 75.5078 125.524V131H73.8994V124.856C73.8994 124.218 73.8232 123.752 73.6709 123.459C73.4307 123.02 72.9824 122.8 72.3262 122.8C71.7285 122.8 71.1836 123.031 70.6914 123.494C70.2051 123.957 69.9619 124.795 69.9619 126.008V131H68.3799V121.587ZM84.5869 128.495C84.5869 128.952 84.7539 129.312 85.0879 129.576C85.4219 129.84 85.8174 129.972 86.2744 129.972C86.8311 129.972 87.3701 129.843 87.8916 129.585C88.7705 129.157 89.21 128.457 89.21 127.484V126.21C89.0166 126.333 88.7676 126.436 88.4629 126.518C88.1582 126.6 87.8594 126.658 87.5664 126.693L86.6084 126.816C86.0342 126.893 85.6035 127.013 85.3164 127.177C84.8301 127.452 84.5869 127.892 84.5869 128.495ZM88.4189 125.296C88.7822 125.249 89.0254 125.097 89.1484 124.839C89.2188 124.698 89.2539 124.496 89.2539 124.232C89.2539 123.693 89.0605 123.304 88.6738 123.063C88.293 122.817 87.7451 122.694 87.0303 122.694C86.2041 122.694 85.6182 122.917 85.2725 123.362C85.0791 123.608 84.9531 123.975 84.8945 124.461H83.418C83.4473 123.301 83.8223 122.495 84.543 122.044C85.2695 121.587 86.1104 121.358 87.0654 121.358C88.1729 121.358 89.0723 121.569 89.7637 121.991C90.4492 122.413 90.792 123.069 90.792 123.96V129.383C90.792 129.547 90.8242 129.679 90.8887 129.778C90.959 129.878 91.1025 129.928 91.3193 129.928C91.3896 129.928 91.4688 129.925 91.5566 129.919C91.6445 129.907 91.7383 129.893 91.8379 129.875V131.044C91.5918 131.114 91.4043 131.158 91.2754 131.176C91.1465 131.193 90.9707 131.202 90.748 131.202C90.2031 131.202 89.8076 131.009 89.5615 130.622C89.4326 130.417 89.3418 130.127 89.2891 129.752C88.9668 130.174 88.5039 130.54 87.9004 130.851C87.2969 131.161 86.6318 131.316 85.9053 131.316C85.0322 131.316 84.3174 131.053 83.7607 130.525C83.21 129.992 82.9346 129.327 82.9346 128.53C82.9346 127.657 83.207 126.98 83.752 126.5C84.2969 126.02 85.0117 125.724 85.8965 125.612L88.4189 125.296ZM94.3955 126.403C94.3955 127.411 94.6094 128.255 95.0371 128.935C95.4648 129.614 96.1504 129.954 97.0938 129.954C97.8262 129.954 98.4268 129.641 98.8955 129.014C99.3701 128.381 99.6074 127.476 99.6074 126.298C99.6074 125.108 99.3643 124.229 98.8779 123.661C98.3916 123.087 97.791 122.8 97.0762 122.8C96.2793 122.8 95.6318 123.104 95.1338 123.714C94.6416 124.323 94.3955 125.22 94.3955 126.403ZM96.7773 121.42C97.498 121.42 98.1016 121.572 98.5879 121.877C98.8691 122.053 99.1885 122.36 99.5459 122.8V118.045H101.066V131H99.6426V129.69C99.2734 130.271 98.8369 130.689 98.333 130.947C97.8291 131.205 97.252 131.334 96.6016 131.334C95.5527 131.334 94.6445 130.895 93.877 130.016C93.1094 129.131 92.7256 127.956 92.7256 126.491C92.7256 125.12 93.0742 123.934 93.7715 122.932C94.4746 121.924 95.4766 121.42 96.7773 121.42ZM107.333 121.376C108.001 121.376 108.648 121.534 109.275 121.851C109.902 122.161 110.38 122.565 110.708 123.063C111.024 123.538 111.235 124.092 111.341 124.725C111.435 125.158 111.481 125.85 111.481 126.799H104.582C104.611 127.754 104.837 128.521 105.259 129.102C105.681 129.676 106.334 129.963 107.219 129.963C108.045 129.963 108.704 129.69 109.196 129.146C109.478 128.829 109.677 128.463 109.794 128.047H111.35C111.309 128.393 111.171 128.779 110.937 129.207C110.708 129.629 110.45 129.975 110.163 130.244C109.683 130.713 109.088 131.029 108.379 131.193C107.998 131.287 107.567 131.334 107.087 131.334C105.915 131.334 104.922 130.909 104.107 130.06C103.293 129.204 102.886 128.009 102.886 126.474C102.886 124.962 103.296 123.734 104.116 122.791C104.937 121.848 106.009 121.376 107.333 121.376ZM109.855 125.542C109.791 124.856 109.642 124.309 109.407 123.898C108.974 123.137 108.25 122.756 107.236 122.756C106.51 122.756 105.9 123.02 105.408 123.547C104.916 124.068 104.655 124.733 104.626 125.542H109.855ZM119.172 121.587L120.982 129.005L122.819 121.587H124.595L126.44 128.961L128.365 121.587H129.947L127.214 131H125.57L123.654 123.714L121.8 131H120.156L117.44 121.587H119.172ZM131.45 121.631H133.059V131H131.45V121.631ZM131.45 118.089H133.059V119.882H131.45V118.089ZM135.774 118.959H137.374V121.587H138.877V122.879H137.374V129.022C137.374 129.351 137.485 129.57 137.708 129.682C137.831 129.746 138.036 129.778 138.323 129.778C138.399 129.778 138.481 129.778 138.569 129.778C138.657 129.772 138.76 129.764 138.877 129.752V131C138.695 131.053 138.505 131.091 138.306 131.114C138.112 131.138 137.901 131.149 137.673 131.149C136.935 131.149 136.434 130.962 136.17 130.587C135.906 130.206 135.774 129.714 135.774 129.11V122.879H134.5V121.587H135.774V118.959ZM140.468 118.045H142.05V122.861C142.425 122.387 142.762 122.053 143.061 121.859C143.57 121.525 144.206 121.358 144.968 121.358C146.333 121.358 147.259 121.836 147.745 122.791C148.009 123.312 148.141 124.036 148.141 124.962V131H146.515V125.067C146.515 124.376 146.427 123.869 146.251 123.547C145.964 123.031 145.425 122.773 144.634 122.773C143.978 122.773 143.383 122.999 142.85 123.45C142.316 123.901 142.05 124.754 142.05 126.008V131H140.468V118.045ZM155.497 121.587H157V122.923C157.445 122.372 157.917 121.977 158.415 121.736C158.913 121.496 159.467 121.376 160.076 121.376C161.412 121.376 162.314 121.842 162.783 122.773C163.041 123.283 163.17 124.013 163.17 124.962V131H161.562V125.067C161.562 124.493 161.477 124.03 161.307 123.679C161.025 123.093 160.516 122.8 159.777 122.8C159.402 122.8 159.095 122.838 158.854 122.914C158.421 123.043 158.04 123.301 157.712 123.688C157.448 123.998 157.275 124.32 157.193 124.654C157.117 124.982 157.079 125.454 157.079 126.069V131H155.497V121.587ZM166.729 128.495C166.729 128.952 166.896 129.312 167.23 129.576C167.564 129.84 167.96 129.972 168.417 129.972C168.974 129.972 169.513 129.843 170.034 129.585C170.913 129.157 171.353 128.457 171.353 127.484V126.21C171.159 126.333 170.91 126.436 170.605 126.518C170.301 126.6 170.002 126.658 169.709 126.693L168.751 126.816C168.177 126.893 167.746 127.013 167.459 127.177C166.973 127.452 166.729 127.892 166.729 128.495ZM170.562 125.296C170.925 125.249 171.168 125.097 171.291 124.839C171.361 124.698 171.396 124.496 171.396 124.232C171.396 123.693 171.203 123.304 170.816 123.063C170.436 122.817 169.888 122.694 169.173 122.694C168.347 122.694 167.761 122.917 167.415 123.362C167.222 123.608 167.096 123.975 167.037 124.461H165.561C165.59 123.301 165.965 122.495 166.686 122.044C167.412 121.587 168.253 121.358 169.208 121.358C170.315 121.358 171.215 121.569 171.906 121.991C172.592 122.413 172.935 123.069 172.935 123.96V129.383C172.935 129.547 172.967 129.679 173.031 129.778C173.102 129.878 173.245 129.928 173.462 129.928C173.532 129.928 173.611 129.925 173.699 129.919C173.787 129.907 173.881 129.893 173.98 129.875V131.044C173.734 131.114 173.547 131.158 173.418 131.176C173.289 131.193 173.113 131.202 172.891 131.202C172.346 131.202 171.95 131.009 171.704 130.622C171.575 130.417 171.484 130.127 171.432 129.752C171.109 130.174 170.646 130.54 170.043 130.851C169.439 131.161 168.774 131.316 168.048 131.316C167.175 131.316 166.46 131.053 165.903 130.525C165.353 129.992 165.077 129.327 165.077 128.53C165.077 127.657 165.35 126.98 165.895 126.5C166.439 126.02 167.154 125.724 168.039 125.612L170.562 125.296ZM175.853 118.959H177.452V121.587H178.955V122.879H177.452V129.022C177.452 129.351 177.563 129.57 177.786 129.682C177.909 129.746 178.114 129.778 178.401 129.778C178.478 129.778 178.56 129.778 178.647 129.778C178.735 129.772 178.838 129.764 178.955 129.752V131C178.773 131.053 178.583 131.091 178.384 131.114C178.19 131.138 177.979 131.149 177.751 131.149C177.013 131.149 176.512 130.962 176.248 130.587C175.984 130.206 175.853 129.714 175.853 129.11V122.879H174.578V121.587H175.853V118.959ZM182.128 121.587V127.836C182.128 128.316 182.204 128.709 182.356 129.014C182.638 129.576 183.162 129.857 183.93 129.857C185.031 129.857 185.781 129.365 186.18 128.381C186.396 127.854 186.505 127.13 186.505 126.21V121.587H188.087V131H186.593L186.61 129.611C186.405 129.969 186.15 130.271 185.846 130.517C185.242 131.009 184.51 131.255 183.648 131.255C182.307 131.255 181.393 130.807 180.906 129.91C180.643 129.43 180.511 128.788 180.511 127.985V121.587H182.128ZM190.609 121.587H192.112V123.213C192.235 122.896 192.537 122.513 193.018 122.062C193.498 121.604 194.052 121.376 194.679 121.376C194.708 121.376 194.758 121.379 194.828 121.385C194.898 121.391 195.019 121.402 195.188 121.42V123.09C195.095 123.072 195.007 123.061 194.925 123.055C194.849 123.049 194.764 123.046 194.67 123.046C193.873 123.046 193.261 123.304 192.833 123.819C192.405 124.329 192.191 124.918 192.191 125.586V131H190.609V121.587ZM197.772 128.495C197.772 128.952 197.939 129.312 198.273 129.576C198.607 129.84 199.003 129.972 199.46 129.972C200.017 129.972 200.556 129.843 201.077 129.585C201.956 129.157 202.396 128.457 202.396 127.484V126.21C202.202 126.333 201.953 126.436 201.648 126.518C201.344 126.6 201.045 126.658 200.752 126.693L199.794 126.816C199.22 126.893 198.789 127.013 198.502 127.177C198.016 127.452 197.772 127.892 197.772 128.495ZM201.604 125.296C201.968 125.249 202.211 125.097 202.334 124.839C202.404 124.698 202.439 124.496 202.439 124.232C202.439 123.693 202.246 123.304 201.859 123.063C201.479 122.817 200.931 122.694 200.216 122.694C199.39 122.694 198.804 122.917 198.458 123.362C198.265 123.608 198.139 123.975 198.08 124.461H196.604C196.633 123.301 197.008 122.495 197.729 122.044C198.455 121.587 199.296 121.358 200.251 121.358C201.358 121.358 202.258 121.569 202.949 121.991C203.635 122.413 203.978 123.069 203.978 123.96V129.383C203.978 129.547 204.01 129.679 204.074 129.778C204.145 129.878 204.288 129.928 204.505 129.928C204.575 129.928 204.654 129.925 204.742 129.919C204.83 129.907 204.924 129.893 205.023 129.875V131.044C204.777 131.114 204.59 131.158 204.461 131.176C204.332 131.193 204.156 131.202 203.934 131.202C203.389 131.202 202.993 131.009 202.747 130.622C202.618 130.417 202.527 130.127 202.475 129.752C202.152 130.174 201.689 130.54 201.086 130.851C200.482 131.161 199.817 131.316 199.091 131.316C198.218 131.316 197.503 131.053 196.946 130.525C196.396 129.992 196.12 129.327 196.12 128.53C196.12 127.657 196.393 126.98 196.938 126.5C197.482 126.02 198.197 125.724 199.082 125.612L201.604 125.296ZM206.623 118.089H208.205V131H206.623V118.089ZM216.537 128.047C216.584 128.574 216.716 128.979 216.933 129.26C217.331 129.77 218.022 130.024 219.007 130.024C219.593 130.024 220.108 129.898 220.554 129.646C220.999 129.389 221.222 128.993 221.222 128.46C221.222 128.056 221.043 127.748 220.686 127.537C220.457 127.408 220.006 127.259 219.332 127.089L218.075 126.772C217.272 126.573 216.681 126.351 216.3 126.104C215.62 125.677 215.28 125.085 215.28 124.329C215.28 123.438 215.6 122.718 216.238 122.167C216.883 121.616 217.747 121.341 218.831 121.341C220.249 121.341 221.271 121.757 221.898 122.589C222.291 123.116 222.481 123.685 222.47 124.294H220.976C220.946 123.937 220.82 123.611 220.598 123.318C220.234 122.902 219.604 122.694 218.708 122.694C218.11 122.694 217.656 122.809 217.346 123.037C217.041 123.266 216.889 123.567 216.889 123.942C216.889 124.353 217.091 124.681 217.495 124.927C217.729 125.073 218.075 125.202 218.532 125.313L219.578 125.568C220.715 125.844 221.477 126.11 221.863 126.368C222.479 126.772 222.786 127.408 222.786 128.275C222.786 129.113 222.467 129.837 221.828 130.446C221.195 131.056 220.229 131.36 218.928 131.36C217.527 131.36 216.534 131.044 215.948 130.411C215.368 129.772 215.058 128.984 215.017 128.047H216.537ZM228.332 129.98C229.381 129.98 230.099 129.585 230.485 128.794C230.878 127.997 231.074 127.112 231.074 126.14C231.074 125.261 230.934 124.546 230.652 123.995C230.207 123.128 229.439 122.694 228.35 122.694C227.383 122.694 226.68 123.063 226.24 123.802C225.801 124.54 225.581 125.431 225.581 126.474C225.581 127.476 225.801 128.311 226.24 128.979C226.68 129.646 227.377 129.98 228.332 129.98ZM228.394 121.314C229.606 121.314 230.632 121.719 231.47 122.527C232.308 123.336 232.727 124.525 232.727 126.096C232.727 127.613 232.357 128.867 231.619 129.857C230.881 130.848 229.735 131.343 228.183 131.343C226.888 131.343 225.859 130.906 225.098 130.033C224.336 129.154 223.955 127.977 223.955 126.5C223.955 124.918 224.356 123.658 225.159 122.721C225.962 121.783 227.04 121.314 228.394 121.314ZM240.496 121.587H242.245C242.022 122.19 241.527 123.567 240.76 125.718C240.186 127.335 239.705 128.653 239.318 129.673C238.404 132.075 237.76 133.54 237.385 134.067C237.01 134.595 236.365 134.858 235.451 134.858C235.229 134.858 235.056 134.85 234.933 134.832C234.815 134.814 234.669 134.782 234.493 134.735V133.294C234.769 133.37 234.968 133.417 235.091 133.435C235.214 133.452 235.322 133.461 235.416 133.461C235.709 133.461 235.923 133.411 236.058 133.312C236.198 133.218 236.315 133.101 236.409 132.96C236.438 132.913 236.544 132.673 236.726 132.239C236.907 131.806 237.039 131.483 237.121 131.272L233.641 121.587H235.434L237.956 129.251L240.496 121.587ZM249.355 121.587L251.166 129.005L253.003 121.587H254.778L256.624 128.961L258.549 121.587H260.131L257.397 131H255.754L253.838 123.714L251.983 131H250.34L247.624 121.587H249.355ZM262.847 128.495C262.847 128.952 263.014 129.312 263.348 129.576C263.682 129.84 264.077 129.972 264.534 129.972C265.091 129.972 265.63 129.843 266.151 129.585C267.03 129.157 267.47 128.457 267.47 127.484V126.21C267.276 126.333 267.027 126.436 266.723 126.518C266.418 126.6 266.119 126.658 265.826 126.693L264.868 126.816C264.294 126.893 263.863 127.013 263.576 127.177C263.09 127.452 262.847 127.892 262.847 128.495ZM266.679 125.296C267.042 125.249 267.285 125.097 267.408 124.839C267.479 124.698 267.514 124.496 267.514 124.232C267.514 123.693 267.32 123.304 266.934 123.063C266.553 122.817 266.005 122.694 265.29 122.694C264.464 122.694 263.878 122.917 263.532 123.362C263.339 123.608 263.213 123.975 263.154 124.461H261.678C261.707 123.301 262.082 122.495 262.803 122.044C263.529 121.587 264.37 121.358 265.325 121.358C266.433 121.358 267.332 121.569 268.023 121.991C268.709 122.413 269.052 123.069 269.052 123.96V129.383C269.052 129.547 269.084 129.679 269.148 129.778C269.219 129.878 269.362 129.928 269.579 129.928C269.649 129.928 269.729 129.925 269.816 129.919C269.904 129.907 269.998 129.893 270.098 129.875V131.044C269.852 131.114 269.664 131.158 269.535 131.176C269.406 131.193 269.23 131.202 269.008 131.202C268.463 131.202 268.067 131.009 267.821 130.622C267.692 130.417 267.602 130.127 267.549 129.752C267.227 130.174 266.764 130.54 266.16 130.851C265.557 131.161 264.892 131.316 264.165 131.316C263.292 131.316 262.577 131.053 262.021 130.525C261.47 129.992 261.194 129.327 261.194 128.53C261.194 127.657 261.467 126.98 262.012 126.5C262.557 126.02 263.271 125.724 264.156 125.612L266.679 125.296ZM270.757 121.587H272.805L274.967 124.9L277.155 121.587L279.08 121.631L275.907 126.175L279.221 131H277.199L274.861 127.467L272.594 131H270.59L273.903 126.175L270.757 121.587ZM280.987 132.837C281.392 132.767 281.676 132.482 281.84 131.984C281.928 131.721 281.972 131.466 281.972 131.22C281.972 131.179 281.969 131.141 281.963 131.105C281.963 131.076 281.957 131.041 281.945 131H280.987V129.084H282.868V130.859C282.868 131.557 282.728 132.169 282.446 132.696C282.165 133.224 281.679 133.549 280.987 133.672V132.837ZM296.324 117.737C297.959 117.737 299.228 118.168 300.13 119.029C301.032 119.891 301.533 120.869 301.633 121.965H299.928C299.734 121.133 299.348 120.474 298.768 119.987C298.193 119.501 297.385 119.258 296.342 119.258C295.07 119.258 294.042 119.706 293.257 120.603C292.478 121.493 292.088 122.861 292.088 124.707C292.088 126.219 292.439 127.446 293.143 128.39C293.852 129.327 294.906 129.796 296.307 129.796C297.596 129.796 298.577 129.301 299.251 128.311C299.608 127.789 299.875 127.104 300.051 126.254H301.756C301.604 127.613 301.1 128.753 300.244 129.673C299.219 130.78 297.836 131.334 296.096 131.334C294.596 131.334 293.336 130.88 292.316 129.972C290.975 128.771 290.304 126.916 290.304 124.408C290.304 122.504 290.808 120.942 291.815 119.724C292.905 118.399 294.408 117.737 296.324 117.737ZM304.894 128.495C304.894 128.952 305.061 129.312 305.395 129.576C305.729 129.84 306.124 129.972 306.581 129.972C307.138 129.972 307.677 129.843 308.198 129.585C309.077 129.157 309.517 128.457 309.517 127.484V126.21C309.323 126.333 309.074 126.436 308.77 126.518C308.465 126.6 308.166 126.658 307.873 126.693L306.915 126.816C306.341 126.893 305.91 127.013 305.623 127.177C305.137 127.452 304.894 127.892 304.894 128.495ZM308.726 125.296C309.089 125.249 309.332 125.097 309.455 124.839C309.525 124.698 309.561 124.496 309.561 124.232C309.561 123.693 309.367 123.304 308.98 123.063C308.6 122.817 308.052 122.694 307.337 122.694C306.511 122.694 305.925 122.917 305.579 123.362C305.386 123.608 305.26 123.975 305.201 124.461H303.725C303.754 123.301 304.129 122.495 304.85 122.044C305.576 121.587 306.417 121.358 307.372 121.358C308.479 121.358 309.379 121.569 310.07 121.991C310.756 122.413 311.099 123.069 311.099 123.96V129.383C311.099 129.547 311.131 129.679 311.195 129.778C311.266 129.878 311.409 129.928 311.626 129.928C311.696 129.928 311.775 129.925 311.863 129.919C311.951 129.907 312.045 129.893 312.145 129.875V131.044C311.898 131.114 311.711 131.158 311.582 131.176C311.453 131.193 311.277 131.202 311.055 131.202C310.51 131.202 310.114 131.009 309.868 130.622C309.739 130.417 309.648 130.127 309.596 129.752C309.273 130.174 308.811 130.54 308.207 130.851C307.604 131.161 306.938 131.316 306.212 131.316C305.339 131.316 304.624 131.053 304.067 130.525C303.517 129.992 303.241 129.327 303.241 128.53C303.241 127.657 303.514 126.98 304.059 126.5C304.604 126.02 305.318 125.724 306.203 125.612L308.726 125.296ZM313.7 121.587H315.203V122.923C315.648 122.372 316.12 121.977 316.618 121.736C317.116 121.496 317.67 121.376 318.279 121.376C319.615 121.376 320.518 121.842 320.986 122.773C321.244 123.283 321.373 124.013 321.373 124.962V131H319.765V125.067C319.765 124.493 319.68 124.03 319.51 123.679C319.229 123.093 318.719 122.8 317.98 122.8C317.605 122.8 317.298 122.838 317.058 122.914C316.624 123.043 316.243 123.301 315.915 123.688C315.651 123.998 315.479 124.32 315.396 124.654C315.32 124.982 315.282 125.454 315.282 126.069V131H313.7V121.587ZM324.722 126.403C324.722 127.411 324.936 128.255 325.363 128.935C325.791 129.614 326.477 129.954 327.42 129.954C328.152 129.954 328.753 129.641 329.222 129.014C329.696 128.381 329.934 127.476 329.934 126.298C329.934 125.108 329.69 124.229 329.204 123.661C328.718 123.087 328.117 122.8 327.402 122.8C326.605 122.8 325.958 123.104 325.46 123.714C324.968 124.323 324.722 125.22 324.722 126.403ZM327.104 121.42C327.824 121.42 328.428 121.572 328.914 121.877C329.195 122.053 329.515 122.36 329.872 122.8V118.045H331.393V131H329.969V129.69C329.6 130.271 329.163 130.689 328.659 130.947C328.155 131.205 327.578 131.334 326.928 131.334C325.879 131.334 324.971 130.895 324.203 130.016C323.436 129.131 323.052 127.956 323.052 126.491C323.052 125.12 323.4 123.934 324.098 122.932C324.801 121.924 325.803 121.42 327.104 121.42ZM333.783 118.089H335.365V131H333.783V118.089ZM341.667 121.376C342.335 121.376 342.982 121.534 343.609 121.851C344.236 122.161 344.714 122.565 345.042 123.063C345.358 123.538 345.569 124.092 345.675 124.725C345.769 125.158 345.815 125.85 345.815 126.799H338.916C338.945 127.754 339.171 128.521 339.593 129.102C340.015 129.676 340.668 129.963 341.553 129.963C342.379 129.963 343.038 129.69 343.53 129.146C343.812 128.829 344.011 128.463 344.128 128.047H345.684C345.643 128.393 345.505 128.779 345.271 129.207C345.042 129.629 344.784 129.975 344.497 130.244C344.017 130.713 343.422 131.029 342.713 131.193C342.332 131.287 341.901 131.334 341.421 131.334C340.249 131.334 339.256 130.909 338.441 130.06C337.627 129.204 337.22 128.009 337.22 126.474C337.22 124.962 337.63 123.734 338.45 122.791C339.271 121.848 340.343 121.376 341.667 121.376ZM344.189 125.542C344.125 124.856 343.976 124.309 343.741 123.898C343.308 123.137 342.584 122.756 341.57 122.756C340.844 122.756 340.234 123.02 339.742 123.547C339.25 124.068 338.989 124.733 338.96 125.542H344.189ZM348.979 128.495C348.979 128.952 349.146 129.312 349.48 129.576C349.814 129.84 350.21 129.972 350.667 129.972C351.224 129.972 351.763 129.843 352.284 129.585C353.163 129.157 353.603 128.457 353.603 127.484V126.21C353.409 126.333 353.16 126.436 352.855 126.518C352.551 126.6 352.252 126.658 351.959 126.693L351.001 126.816C350.427 126.893 349.996 127.013 349.709 127.177C349.223 127.452 348.979 127.892 348.979 128.495ZM352.812 125.296C353.175 125.249 353.418 125.097 353.541 124.839C353.611 124.698 353.646 124.496 353.646 124.232C353.646 123.693 353.453 123.304 353.066 123.063C352.686 122.817 352.138 122.694 351.423 122.694C350.597 122.694 350.011 122.917 349.665 123.362C349.472 123.608 349.346 123.975 349.287 124.461H347.811C347.84 123.301 348.215 122.495 348.936 122.044C349.662 121.587 350.503 121.358 351.458 121.358C352.565 121.358 353.465 121.569 354.156 121.991C354.842 122.413 355.185 123.069 355.185 123.96V129.383C355.185 129.547 355.217 129.679 355.281 129.778C355.352 129.878 355.495 129.928 355.712 129.928C355.782 129.928 355.861 129.925 355.949 129.919C356.037 129.907 356.131 129.893 356.23 129.875V131.044C355.984 131.114 355.797 131.158 355.668 131.176C355.539 131.193 355.363 131.202 355.141 131.202C354.596 131.202 354.2 131.009 353.954 130.622C353.825 130.417 353.734 130.127 353.682 129.752C353.359 130.174 352.896 130.54 352.293 130.851C351.689 131.161 351.024 131.316 350.298 131.316C349.425 131.316 348.71 131.053 348.153 130.525C347.603 129.992 347.327 129.327 347.327 128.53C347.327 127.657 347.6 126.98 348.145 126.5C348.689 126.02 349.404 125.724 350.289 125.612L352.812 125.296ZM358.182 120.154C358.205 119.498 358.319 119.018 358.524 118.713C358.894 118.174 359.605 117.904 360.66 117.904C360.76 117.904 360.862 117.907 360.968 117.913C361.073 117.919 361.193 117.928 361.328 117.939V119.381C361.164 119.369 361.044 119.363 360.968 119.363C360.897 119.357 360.83 119.354 360.766 119.354C360.285 119.354 359.998 119.48 359.904 119.732C359.811 119.979 359.764 120.611 359.764 121.631H361.328V122.879H359.746V131H358.182V122.879H356.872V121.631H358.182V120.154ZM367.806 121.631H369.414V131H367.806V121.631ZM367.806 118.089H369.414V119.882H367.806V118.089ZM372.754 128.047C372.801 128.574 372.933 128.979 373.149 129.26C373.548 129.77 374.239 130.024 375.224 130.024C375.81 130.024 376.325 129.898 376.771 129.646C377.216 129.389 377.438 128.993 377.438 128.46C377.438 128.056 377.26 127.748 376.902 127.537C376.674 127.408 376.223 127.259 375.549 127.089L374.292 126.772C373.489 126.573 372.897 126.351 372.517 126.104C371.837 125.677 371.497 125.085 371.497 124.329C371.497 123.438 371.816 122.718 372.455 122.167C373.1 121.616 373.964 121.341 375.048 121.341C376.466 121.341 377.488 121.757 378.115 122.589C378.508 123.116 378.698 123.685 378.687 124.294H377.192C377.163 123.937 377.037 123.611 376.814 123.318C376.451 122.902 375.821 122.694 374.925 122.694C374.327 122.694 373.873 122.809 373.562 123.037C373.258 123.266 373.105 123.567 373.105 123.942C373.105 124.353 373.308 124.681 373.712 124.927C373.946 125.073 374.292 125.202 374.749 125.313L375.795 125.568C376.932 125.844 377.693 126.11 378.08 126.368C378.695 126.772 379.003 127.408 379.003 128.275C379.003 129.113 378.684 129.837 378.045 130.446C377.412 131.056 376.445 131.36 375.145 131.36C373.744 131.36 372.751 131.044 372.165 130.411C371.585 129.772 371.274 128.984 371.233 128.047H372.754ZM387.036 128.495C387.036 128.952 387.203 129.312 387.537 129.576C387.871 129.84 388.267 129.972 388.724 129.972C389.28 129.972 389.819 129.843 390.341 129.585C391.22 129.157 391.659 128.457 391.659 127.484V126.21C391.466 126.333 391.217 126.436 390.912 126.518C390.607 126.6 390.309 126.658 390.016 126.693L389.058 126.816C388.483 126.893 388.053 127.013 387.766 127.177C387.279 127.452 387.036 127.892 387.036 128.495ZM390.868 125.296C391.231 125.249 391.475 125.097 391.598 124.839C391.668 124.698 391.703 124.496 391.703 124.232C391.703 123.693 391.51 123.304 391.123 123.063C390.742 122.817 390.194 122.694 389.479 122.694C388.653 122.694 388.067 122.917 387.722 123.362C387.528 123.608 387.402 123.975 387.344 124.461H385.867C385.896 123.301 386.271 122.495 386.992 122.044C387.719 121.587 388.56 121.358 389.515 121.358C390.622 121.358 391.521 121.569 392.213 121.991C392.898 122.413 393.241 123.069 393.241 123.96V129.383C393.241 129.547 393.273 129.679 393.338 129.778C393.408 129.878 393.552 129.928 393.769 129.928C393.839 129.928 393.918 129.925 394.006 129.919C394.094 129.907 394.188 129.893 394.287 129.875V131.044C394.041 131.114 393.854 131.158 393.725 131.176C393.596 131.193 393.42 131.202 393.197 131.202C392.652 131.202 392.257 131.009 392.011 130.622C391.882 130.417 391.791 130.127 391.738 129.752C391.416 130.174 390.953 130.54 390.35 130.851C389.746 131.161 389.081 131.316 388.354 131.316C387.481 131.316 386.767 131.053 386.21 130.525C385.659 129.992 385.384 129.327 385.384 128.53C385.384 127.657 385.656 126.98 386.201 126.5C386.746 126.02 387.461 125.724 388.346 125.612L390.868 125.296ZM404.482 121.314C405.543 121.314 406.404 121.572 407.066 122.088C407.734 122.604 408.136 123.491 408.271 124.751H406.732C406.639 124.171 406.425 123.69 406.091 123.31C405.757 122.923 405.221 122.729 404.482 122.729C403.475 122.729 402.754 123.222 402.32 124.206C402.039 124.845 401.898 125.633 401.898 126.57C401.898 127.514 402.098 128.308 402.496 128.952C402.895 129.597 403.521 129.919 404.377 129.919C405.033 129.919 405.552 129.72 405.933 129.321C406.319 128.917 406.586 128.366 406.732 127.669H408.271C408.095 128.917 407.655 129.831 406.952 130.411C406.249 130.985 405.35 131.272 404.254 131.272C403.023 131.272 402.042 130.824 401.31 129.928C400.577 129.025 400.211 127.9 400.211 126.553C400.211 124.9 400.612 123.614 401.415 122.694C402.218 121.774 403.24 121.314 404.482 121.314ZM413.588 129.98C414.637 129.98 415.354 129.585 415.741 128.794C416.134 127.997 416.33 127.112 416.33 126.14C416.33 125.261 416.189 124.546 415.908 123.995C415.463 123.128 414.695 122.694 413.605 122.694C412.639 122.694 411.936 123.063 411.496 123.802C411.057 124.54 410.837 125.431 410.837 126.474C410.837 127.476 411.057 128.311 411.496 128.979C411.936 129.646 412.633 129.98 413.588 129.98ZM413.649 121.314C414.862 121.314 415.888 121.719 416.726 122.527C417.563 123.336 417.982 124.525 417.982 126.096C417.982 127.613 417.613 128.867 416.875 129.857C416.137 130.848 414.991 131.343 413.438 131.343C412.144 131.343 411.115 130.906 410.354 130.033C409.592 129.154 409.211 127.977 409.211 126.5C409.211 124.918 409.612 123.658 410.415 122.721C411.218 121.783 412.296 121.314 413.649 121.314ZM419.872 121.587H421.437V122.923C421.812 122.46 422.151 122.123 422.456 121.912C422.978 121.555 423.569 121.376 424.231 121.376C424.981 121.376 425.585 121.561 426.042 121.93C426.3 122.141 426.534 122.451 426.745 122.861C427.097 122.357 427.51 121.985 427.984 121.745C428.459 121.499 428.992 121.376 429.584 121.376C430.85 121.376 431.711 121.833 432.168 122.747C432.414 123.239 432.537 123.901 432.537 124.733V131H430.894V124.461C430.894 123.834 430.735 123.403 430.419 123.169C430.108 122.935 429.728 122.817 429.276 122.817C428.655 122.817 428.119 123.025 427.668 123.441C427.223 123.857 427 124.552 427 125.524V131H425.392V124.856C425.392 124.218 425.315 123.752 425.163 123.459C424.923 123.02 424.475 122.8 423.818 122.8C423.221 122.8 422.676 123.031 422.184 123.494C421.697 123.957 421.454 124.795 421.454 126.008V131H419.872V121.587ZM438.839 129.937C439.577 129.937 440.189 129.629 440.676 129.014C441.168 128.393 441.414 127.467 441.414 126.236C441.414 125.486 441.306 124.842 441.089 124.303C440.679 123.266 439.929 122.747 438.839 122.747C437.743 122.747 436.993 123.295 436.589 124.391C436.372 124.977 436.264 125.721 436.264 126.623C436.264 127.35 436.372 127.968 436.589 128.478C436.999 129.45 437.749 129.937 438.839 129.937ZM434.743 121.631H436.281V122.879C436.598 122.451 436.943 122.12 437.318 121.886C437.852 121.534 438.479 121.358 439.199 121.358C440.266 121.358 441.171 121.769 441.915 122.589C442.659 123.403 443.031 124.569 443.031 126.087C443.031 128.138 442.495 129.603 441.423 130.481C440.743 131.038 439.952 131.316 439.05 131.316C438.341 131.316 437.746 131.161 437.266 130.851C436.984 130.675 436.671 130.373 436.325 129.945V134.753H434.743V121.631ZM446.099 128.495C446.099 128.952 446.266 129.312 446.6 129.576C446.934 129.84 447.329 129.972 447.786 129.972C448.343 129.972 448.882 129.843 449.403 129.585C450.282 129.157 450.722 128.457 450.722 127.484V126.21C450.528 126.333 450.279 126.436 449.975 126.518C449.67 126.6 449.371 126.658 449.078 126.693L448.12 126.816C447.546 126.893 447.115 127.013 446.828 127.177C446.342 127.452 446.099 127.892 446.099 128.495ZM449.931 125.296C450.294 125.249 450.537 125.097 450.66 124.839C450.73 124.698 450.766 124.496 450.766 124.232C450.766 123.693 450.572 123.304 450.186 123.063C449.805 122.817 449.257 122.694 448.542 122.694C447.716 122.694 447.13 122.917 446.784 123.362C446.591 123.608 446.465 123.975 446.406 124.461H444.93C444.959 123.301 445.334 122.495 446.055 122.044C446.781 121.587 447.622 121.358 448.577 121.358C449.685 121.358 450.584 121.569 451.275 121.991C451.961 122.413 452.304 123.069 452.304 123.96V129.383C452.304 129.547 452.336 129.679 452.4 129.778C452.471 129.878 452.614 129.928 452.831 129.928C452.901 129.928 452.98 129.925 453.068 129.919C453.156 129.907 453.25 129.893 453.35 129.875V131.044C453.104 131.114 452.916 131.158 452.787 131.176C452.658 131.193 452.482 131.202 452.26 131.202C451.715 131.202 451.319 131.009 451.073 130.622C450.944 130.417 450.854 130.127 450.801 129.752C450.479 130.174 450.016 130.54 449.412 130.851C448.809 131.161 448.144 131.316 447.417 131.316C446.544 131.316 445.829 131.053 445.272 130.525C444.722 129.992 444.446 129.327 444.446 128.53C444.446 127.657 444.719 126.98 445.264 126.5C445.809 126.02 446.523 125.724 447.408 125.612L449.931 125.296ZM454.905 121.587H456.408V122.923C456.854 122.372 457.325 121.977 457.823 121.736C458.321 121.496 458.875 121.376 459.484 121.376C460.82 121.376 461.723 121.842 462.191 122.773C462.449 123.283 462.578 124.013 462.578 124.962V131H460.97V125.067C460.97 124.493 460.885 124.03 460.715 123.679C460.434 123.093 459.924 122.8 459.186 122.8C458.811 122.8 458.503 122.838 458.263 122.914C457.829 123.043 457.448 123.301 457.12 123.688C456.856 123.998 456.684 124.32 456.602 124.654C456.525 124.982 456.487 125.454 456.487 126.069V131H454.905V121.587ZM464.925 121.631H466.533V131H464.925V121.631ZM464.925 118.089H466.533V119.882H464.925V118.089ZM472.668 129.98C473.717 129.98 474.435 129.585 474.821 128.794C475.214 127.997 475.41 127.112 475.41 126.14C475.41 125.261 475.27 124.546 474.988 123.995C474.543 123.128 473.775 122.694 472.686 122.694C471.719 122.694 471.016 123.063 470.576 123.802C470.137 124.54 469.917 125.431 469.917 126.474C469.917 127.476 470.137 128.311 470.576 128.979C471.016 129.646 471.713 129.98 472.668 129.98ZM472.729 121.314C473.942 121.314 474.968 121.719 475.806 122.527C476.644 123.336 477.062 124.525 477.062 126.096C477.062 127.613 476.693 128.867 475.955 129.857C475.217 130.848 474.071 131.343 472.519 131.343C471.224 131.343 470.195 130.906 469.434 130.033C468.672 129.154 468.291 127.977 468.291 126.5C468.291 124.918 468.692 123.658 469.495 122.721C470.298 121.783 471.376 121.314 472.729 121.314ZM478.952 121.587H480.455V122.923C480.9 122.372 481.372 121.977 481.87 121.736C482.368 121.496 482.922 121.376 483.531 121.376C484.867 121.376 485.77 121.842 486.238 122.773C486.496 123.283 486.625 124.013 486.625 124.962V131H485.017V125.067C485.017 124.493 484.932 124.03 484.762 123.679C484.48 123.093 483.971 122.8 483.232 122.8C482.857 122.8 482.55 122.838 482.31 122.914C481.876 123.043 481.495 123.301 481.167 123.688C480.903 123.998 480.73 124.32 480.648 124.654C480.572 124.982 480.534 125.454 480.534 126.069V131H478.952V121.587ZM494.377 120.154C494.4 119.498 494.515 119.018 494.72 118.713C495.089 118.174 495.801 117.904 496.855 117.904C496.955 117.904 497.058 117.907 497.163 117.913C497.269 117.919 497.389 117.928 497.523 117.939V119.381C497.359 119.369 497.239 119.363 497.163 119.363C497.093 119.357 497.025 119.354 496.961 119.354C496.48 119.354 496.193 119.48 496.1 119.732C496.006 119.979 495.959 120.611 495.959 121.631H497.523V122.879H495.941V131H494.377V122.879H493.067V121.631H494.377V120.154ZM502.727 129.98C503.775 129.98 504.493 129.585 504.88 128.794C505.272 127.997 505.469 127.112 505.469 126.14C505.469 125.261 505.328 124.546 505.047 123.995C504.602 123.128 503.834 122.694 502.744 122.694C501.777 122.694 501.074 123.063 500.635 123.802C500.195 124.54 499.976 125.431 499.976 126.474C499.976 127.476 500.195 128.311 500.635 128.979C501.074 129.646 501.771 129.98 502.727 129.98ZM502.788 121.314C504.001 121.314 505.026 121.719 505.864 122.527C506.702 123.336 507.121 124.525 507.121 126.096C507.121 127.613 506.752 128.867 506.014 129.857C505.275 130.848 504.13 131.343 502.577 131.343C501.282 131.343 500.254 130.906 499.492 130.033C498.73 129.154 498.35 127.977 498.35 126.5C498.35 124.918 498.751 123.658 499.554 122.721C500.356 121.783 501.435 121.314 502.788 121.314ZM509.055 121.587H510.558V123.213C510.681 122.896 510.982 122.513 511.463 122.062C511.943 121.604 512.497 121.376 513.124 121.376C513.153 121.376 513.203 121.379 513.273 121.385C513.344 121.391 513.464 121.402 513.634 121.42V123.09C513.54 123.072 513.452 123.061 513.37 123.055C513.294 123.049 513.209 123.046 513.115 123.046C512.318 123.046 511.706 123.304 511.278 123.819C510.851 124.329 510.637 124.918 510.637 125.586V131H509.055V121.587ZM521.228 128.495C521.228 128.952 521.395 129.312 521.729 129.576C522.062 129.84 522.458 129.972 522.915 129.972C523.472 129.972 524.011 129.843 524.532 129.585C525.411 129.157 525.851 128.457 525.851 127.484V126.21C525.657 126.333 525.408 126.436 525.104 126.518C524.799 126.6 524.5 126.658 524.207 126.693L523.249 126.816C522.675 126.893 522.244 127.013 521.957 127.177C521.471 127.452 521.228 127.892 521.228 128.495ZM525.06 125.296C525.423 125.249 525.666 125.097 525.789 124.839C525.859 124.698 525.895 124.496 525.895 124.232C525.895 123.693 525.701 123.304 525.314 123.063C524.934 122.817 524.386 122.694 523.671 122.694C522.845 122.694 522.259 122.917 521.913 123.362C521.72 123.608 521.594 123.975 521.535 124.461H520.059C520.088 123.301 520.463 122.495 521.184 122.044C521.91 121.587 522.751 121.358 523.706 121.358C524.813 121.358 525.713 121.569 526.404 121.991C527.09 122.413 527.433 123.069 527.433 123.96V129.383C527.433 129.547 527.465 129.679 527.529 129.778C527.6 129.878 527.743 129.928 527.96 129.928C528.03 129.928 528.109 129.925 528.197 129.919C528.285 129.907 528.379 129.893 528.479 129.875V131.044C528.232 131.114 528.045 131.158 527.916 131.176C527.787 131.193 527.611 131.202 527.389 131.202C526.844 131.202 526.448 131.009 526.202 130.622C526.073 130.417 525.982 130.127 525.93 129.752C525.607 130.174 525.145 130.54 524.541 130.851C523.938 131.161 523.272 131.316 522.546 131.316C521.673 131.316 520.958 131.053 520.401 130.525C519.851 129.992 519.575 129.327 519.575 128.53C519.575 127.657 519.848 126.98 520.393 126.5C520.938 126.02 521.652 125.724 522.537 125.612L525.06 125.296ZM530.078 118.089H531.66V131H530.078V118.089ZM534.086 118.089H535.668V131H534.086V118.089ZM182.436 147.587H184.185C183.962 148.19 183.467 149.567 182.699 151.718C182.125 153.335 181.645 154.653 181.258 155.673C180.344 158.075 179.699 159.54 179.324 160.067C178.949 160.595 178.305 160.858 177.391 160.858C177.168 160.858 176.995 160.85 176.872 160.832C176.755 160.814 176.608 160.782 176.433 160.735V159.294C176.708 159.37 176.907 159.417 177.03 159.435C177.153 159.452 177.262 159.461 177.355 159.461C177.648 159.461 177.862 159.411 177.997 159.312C178.138 159.218 178.255 159.101 178.349 158.96C178.378 158.913 178.483 158.673 178.665 158.239C178.847 157.806 178.979 157.483 179.061 157.272L175.58 147.587H177.373L179.896 155.251L182.436 147.587ZM189.291 155.98C190.34 155.98 191.058 155.585 191.444 154.794C191.837 153.997 192.033 153.112 192.033 152.14C192.033 151.261 191.893 150.546 191.611 149.995C191.166 149.128 190.398 148.694 189.309 148.694C188.342 148.694 187.639 149.063 187.199 149.802C186.76 150.54 186.54 151.431 186.54 152.474C186.54 153.476 186.76 154.311 187.199 154.979C187.639 155.646 188.336 155.98 189.291 155.98ZM189.353 147.314C190.565 147.314 191.591 147.719 192.429 148.527C193.267 149.336 193.686 150.525 193.686 152.096C193.686 153.613 193.316 154.867 192.578 155.857C191.84 156.848 190.694 157.343 189.142 157.343C187.847 157.343 186.818 156.906 186.057 156.033C185.295 155.154 184.914 153.977 184.914 152.5C184.914 150.918 185.315 149.658 186.118 148.721C186.921 147.783 187.999 147.314 189.353 147.314ZM197.157 147.587V153.836C197.157 154.316 197.233 154.709 197.386 155.014C197.667 155.576 198.191 155.857 198.959 155.857C200.061 155.857 200.811 155.365 201.209 154.381C201.426 153.854 201.534 153.13 201.534 152.21V147.587H203.116V157H201.622L201.64 155.611C201.435 155.969 201.18 156.271 200.875 156.517C200.271 157.009 199.539 157.255 198.678 157.255C197.336 157.255 196.422 156.807 195.936 155.91C195.672 155.43 195.54 154.788 195.54 153.985V147.587H197.157ZM205.639 147.587H207.142V149.213C207.265 148.896 207.566 148.513 208.047 148.062C208.527 147.604 209.081 147.376 209.708 147.376C209.737 147.376 209.787 147.379 209.857 147.385C209.928 147.391 210.048 147.402 210.218 147.42V149.09C210.124 149.072 210.036 149.061 209.954 149.055C209.878 149.049 209.793 149.046 209.699 149.046C208.902 149.046 208.29 149.304 207.862 149.819C207.435 150.329 207.221 150.918 207.221 151.586V157H205.639V147.587ZM220.571 155.937C221.31 155.937 221.922 155.629 222.408 155.014C222.9 154.393 223.146 153.467 223.146 152.236C223.146 151.486 223.038 150.842 222.821 150.303C222.411 149.266 221.661 148.747 220.571 148.747C219.476 148.747 218.726 149.295 218.321 150.391C218.104 150.977 217.996 151.721 217.996 152.623C217.996 153.35 218.104 153.968 218.321 154.478C218.731 155.45 219.481 155.937 220.571 155.937ZM216.476 147.631H218.014V148.879C218.33 148.451 218.676 148.12 219.051 147.886C219.584 147.534 220.211 147.358 220.932 147.358C221.998 147.358 222.903 147.769 223.647 148.589C224.392 149.403 224.764 150.569 224.764 152.087C224.764 154.138 224.228 155.603 223.155 156.481C222.476 157.038 221.685 157.316 220.782 157.316C220.073 157.316 219.479 157.161 218.998 156.851C218.717 156.675 218.403 156.373 218.058 155.945V160.753H216.476V147.631ZM226.662 144.089H228.244V157H226.662V144.089ZM234.546 147.376C235.214 147.376 235.861 147.534 236.488 147.851C237.115 148.161 237.593 148.565 237.921 149.063C238.237 149.538 238.448 150.092 238.554 150.725C238.647 151.158 238.694 151.85 238.694 152.799H231.795C231.824 153.754 232.05 154.521 232.472 155.102C232.894 155.676 233.547 155.963 234.432 155.963C235.258 155.963 235.917 155.69 236.409 155.146C236.69 154.829 236.89 154.463 237.007 154.047H238.562C238.521 154.393 238.384 154.779 238.149 155.207C237.921 155.629 237.663 155.975 237.376 156.244C236.896 156.713 236.301 157.029 235.592 157.193C235.211 157.287 234.78 157.334 234.3 157.334C233.128 157.334 232.135 156.909 231.32 156.06C230.506 155.204 230.099 154.009 230.099 152.474C230.099 150.962 230.509 149.734 231.329 148.791C232.149 147.848 233.222 147.376 234.546 147.376ZM237.068 151.542C237.004 150.856 236.854 150.309 236.62 149.898C236.187 149.137 235.463 148.756 234.449 148.756C233.723 148.756 233.113 149.02 232.621 149.547C232.129 150.068 231.868 150.733 231.839 151.542H237.068ZM241.858 154.495C241.858 154.952 242.025 155.312 242.359 155.576C242.693 155.84 243.089 155.972 243.546 155.972C244.103 155.972 244.642 155.843 245.163 155.585C246.042 155.157 246.481 154.457 246.481 153.484V152.21C246.288 152.333 246.039 152.436 245.734 152.518C245.43 152.6 245.131 152.658 244.838 152.693L243.88 152.816C243.306 152.893 242.875 153.013 242.588 153.177C242.102 153.452 241.858 153.892 241.858 154.495ZM245.69 151.296C246.054 151.249 246.297 151.097 246.42 150.839C246.49 150.698 246.525 150.496 246.525 150.232C246.525 149.693 246.332 149.304 245.945 149.063C245.564 148.817 245.017 148.694 244.302 148.694C243.476 148.694 242.89 148.917 242.544 149.362C242.351 149.608 242.225 149.975 242.166 150.461H240.689C240.719 149.301 241.094 148.495 241.814 148.044C242.541 147.587 243.382 147.358 244.337 147.358C245.444 147.358 246.344 147.569 247.035 147.991C247.721 148.413 248.063 149.069 248.063 149.96V155.383C248.063 155.547 248.096 155.679 248.16 155.778C248.23 155.878 248.374 155.928 248.591 155.928C248.661 155.928 248.74 155.925 248.828 155.919C248.916 155.907 249.01 155.893 249.109 155.875V157.044C248.863 157.114 248.676 157.158 248.547 157.176C248.418 157.193 248.242 157.202 248.02 157.202C247.475 157.202 247.079 157.009 246.833 156.622C246.704 156.417 246.613 156.127 246.561 155.752C246.238 156.174 245.775 156.54 245.172 156.851C244.568 157.161 243.903 157.316 243.177 157.316C242.304 157.316 241.589 157.053 241.032 156.525C240.481 155.992 240.206 155.327 240.206 154.53C240.206 153.657 240.479 152.98 241.023 152.5C241.568 152.02 242.283 151.724 243.168 151.612L245.69 151.296ZM251.605 154.047C251.652 154.574 251.784 154.979 252.001 155.26C252.399 155.77 253.091 156.024 254.075 156.024C254.661 156.024 255.177 155.898 255.622 155.646C256.067 155.389 256.29 154.993 256.29 154.46C256.29 154.056 256.111 153.748 255.754 153.537C255.525 153.408 255.074 153.259 254.4 153.089L253.144 152.772C252.341 152.573 251.749 152.351 251.368 152.104C250.688 151.677 250.349 151.085 250.349 150.329C250.349 149.438 250.668 148.718 251.307 148.167C251.951 147.616 252.815 147.341 253.899 147.341C255.317 147.341 256.34 147.757 256.967 148.589C257.359 149.116 257.55 149.685 257.538 150.294H256.044C256.015 149.937 255.889 149.611 255.666 149.318C255.303 148.902 254.673 148.694 253.776 148.694C253.179 148.694 252.725 148.809 252.414 149.037C252.109 149.266 251.957 149.567 251.957 149.942C251.957 150.353 252.159 150.681 252.563 150.927C252.798 151.073 253.144 151.202 253.601 151.313L254.646 151.568C255.783 151.844 256.545 152.11 256.932 152.368C257.547 152.772 257.854 153.408 257.854 154.275C257.854 155.113 257.535 155.837 256.896 156.446C256.264 157.056 255.297 157.36 253.996 157.36C252.596 157.36 251.603 157.044 251.017 156.411C250.437 155.772 250.126 154.984 250.085 154.047H251.605ZM261.247 147.587V153.836C261.247 154.316 261.323 154.709 261.476 155.014C261.757 155.576 262.281 155.857 263.049 155.857C264.15 155.857 264.9 155.365 265.299 154.381C265.516 153.854 265.624 153.13 265.624 152.21V147.587H267.206V157H265.712L265.729 155.611C265.524 155.969 265.27 156.271 264.965 156.517C264.361 157.009 263.629 157.255 262.768 157.255C261.426 157.255 260.512 156.807 260.025 155.91C259.762 155.43 259.63 154.788 259.63 153.985V147.587H261.247ZM269.729 147.587H271.231V149.213C271.354 148.896 271.656 148.513 272.137 148.062C272.617 147.604 273.171 147.376 273.798 147.376C273.827 147.376 273.877 147.379 273.947 147.385C274.018 147.391 274.138 147.402 274.308 147.42V149.09C274.214 149.072 274.126 149.061 274.044 149.055C273.968 149.049 273.883 149.046 273.789 149.046C272.992 149.046 272.38 149.304 271.952 149.819C271.524 150.329 271.311 150.918 271.311 151.586V157H269.729V147.587ZM279.599 147.376C280.267 147.376 280.914 147.534 281.541 147.851C282.168 148.161 282.646 148.565 282.974 149.063C283.29 149.538 283.501 150.092 283.606 150.725C283.7 151.158 283.747 151.85 283.747 152.799H276.848C276.877 153.754 277.103 154.521 277.524 155.102C277.946 155.676 278.6 155.963 279.484 155.963C280.311 155.963 280.97 155.69 281.462 155.146C281.743 154.829 281.942 154.463 282.06 154.047H283.615C283.574 154.393 283.437 154.779 283.202 155.207C282.974 155.629 282.716 155.975 282.429 156.244C281.948 156.713 281.354 157.029 280.645 157.193C280.264 157.287 279.833 157.334 279.353 157.334C278.181 157.334 277.188 156.909 276.373 156.06C275.559 155.204 275.151 154.009 275.151 152.474C275.151 150.962 275.562 149.734 276.382 148.791C277.202 147.848 278.274 147.376 279.599 147.376ZM282.121 151.542C282.057 150.856 281.907 150.309 281.673 149.898C281.239 149.137 280.516 148.756 279.502 148.756C278.775 148.756 278.166 149.02 277.674 149.547C277.182 150.068 276.921 150.733 276.892 151.542H282.121ZM290.708 147.587H292.272V148.923C292.647 148.46 292.987 148.123 293.292 147.912C293.813 147.555 294.405 147.376 295.067 147.376C295.817 147.376 296.421 147.561 296.878 147.93C297.136 148.141 297.37 148.451 297.581 148.861C297.933 148.357 298.346 147.985 298.82 147.745C299.295 147.499 299.828 147.376 300.42 147.376C301.686 147.376 302.547 147.833 303.004 148.747C303.25 149.239 303.373 149.901 303.373 150.733V157H301.729V150.461C301.729 149.834 301.571 149.403 301.255 149.169C300.944 148.935 300.563 148.817 300.112 148.817C299.491 148.817 298.955 149.025 298.504 149.441C298.059 149.857 297.836 150.552 297.836 151.524V157H296.228V150.856C296.228 150.218 296.151 149.752 295.999 149.459C295.759 149.02 295.311 148.8 294.654 148.8C294.057 148.8 293.512 149.031 293.02 149.494C292.533 149.957 292.29 150.795 292.29 152.008V157H290.708V147.587ZM309.438 155.98C310.486 155.98 311.204 155.585 311.591 154.794C311.983 153.997 312.18 153.112 312.18 152.14C312.18 151.261 312.039 150.546 311.758 149.995C311.312 149.128 310.545 148.694 309.455 148.694C308.488 148.694 307.785 149.063 307.346 149.802C306.906 150.54 306.687 151.431 306.687 152.474C306.687 153.476 306.906 154.311 307.346 154.979C307.785 155.646 308.482 155.98 309.438 155.98ZM309.499 147.314C310.712 147.314 311.737 147.719 312.575 148.527C313.413 149.336 313.832 150.525 313.832 152.096C313.832 153.613 313.463 154.867 312.725 155.857C311.986 156.848 310.841 157.343 309.288 157.343C307.993 157.343 306.965 156.906 306.203 156.033C305.441 155.154 305.061 153.977 305.061 152.5C305.061 150.918 305.462 149.658 306.265 148.721C307.067 147.783 308.146 147.314 309.499 147.314ZM315.722 147.587H317.286V148.923C317.661 148.46 318.001 148.123 318.306 147.912C318.827 147.555 319.419 147.376 320.081 147.376C320.831 147.376 321.435 147.561 321.892 147.93C322.149 148.141 322.384 148.451 322.595 148.861C322.946 148.357 323.359 147.985 323.834 147.745C324.309 147.499 324.842 147.376 325.434 147.376C326.699 147.376 327.561 147.833 328.018 148.747C328.264 149.239 328.387 149.901 328.387 150.733V157H326.743V150.461C326.743 149.834 326.585 149.403 326.269 149.169C325.958 148.935 325.577 148.817 325.126 148.817C324.505 148.817 323.969 149.025 323.518 149.441C323.072 149.857 322.85 150.552 322.85 151.524V157H321.241V150.856C321.241 150.218 321.165 149.752 321.013 149.459C320.772 149.02 320.324 148.8 319.668 148.8C319.07 148.8 318.525 149.031 318.033 149.494C317.547 149.957 317.304 150.795 317.304 152.008V157H315.722V147.587ZM334.636 147.376C335.304 147.376 335.951 147.534 336.578 147.851C337.205 148.161 337.683 148.565 338.011 149.063C338.327 149.538 338.538 150.092 338.644 150.725C338.737 151.158 338.784 151.85 338.784 152.799H331.885C331.914 153.754 332.14 154.521 332.562 155.102C332.983 155.676 333.637 155.963 334.521 155.963C335.348 155.963 336.007 155.69 336.499 155.146C336.78 154.829 336.979 154.463 337.097 154.047H338.652C338.611 154.393 338.474 154.779 338.239 155.207C338.011 155.629 337.753 155.975 337.466 156.244C336.985 156.713 336.391 157.029 335.682 157.193C335.301 157.287 334.87 157.334 334.39 157.334C333.218 157.334 332.225 156.909 331.41 156.06C330.596 155.204 330.188 154.009 330.188 152.474C330.188 150.962 330.599 149.734 331.419 148.791C332.239 147.848 333.312 147.376 334.636 147.376ZM337.158 151.542C337.094 150.856 336.944 150.309 336.71 149.898C336.276 149.137 335.553 148.756 334.539 148.756C333.812 148.756 333.203 149.02 332.711 149.547C332.219 150.068 331.958 150.733 331.929 151.542H337.158ZM340.735 147.587H342.238V148.923C342.684 148.372 343.155 147.977 343.653 147.736C344.151 147.496 344.705 147.376 345.314 147.376C346.65 147.376 347.553 147.842 348.021 148.773C348.279 149.283 348.408 150.013 348.408 150.962V157H346.8V151.067C346.8 150.493 346.715 150.03 346.545 149.679C346.264 149.093 345.754 148.8 345.016 148.8C344.641 148.8 344.333 148.838 344.093 148.914C343.659 149.043 343.278 149.301 342.95 149.688C342.687 149.998 342.514 150.32 342.432 150.654C342.355 150.982 342.317 151.454 342.317 152.069V157H340.735V147.587ZM351.071 144.959H352.671V147.587H354.174V148.879H352.671V155.022C352.671 155.351 352.782 155.57 353.005 155.682C353.128 155.746 353.333 155.778 353.62 155.778C353.696 155.778 353.778 155.778 353.866 155.778C353.954 155.772 354.057 155.764 354.174 155.752V157C353.992 157.053 353.802 157.091 353.603 157.114C353.409 157.138 353.198 157.149 352.97 157.149C352.231 157.149 351.73 156.962 351.467 156.587C351.203 156.206 351.071 155.714 351.071 155.11V148.879H349.797V147.587H351.071V144.959ZM356.705 154.047C356.752 154.574 356.884 154.979 357.101 155.26C357.499 155.77 358.19 156.024 359.175 156.024C359.761 156.024 360.276 155.898 360.722 155.646C361.167 155.389 361.39 154.993 361.39 154.46C361.39 154.056 361.211 153.748 360.854 153.537C360.625 153.408 360.174 153.259 359.5 153.089L358.243 152.772C357.44 152.573 356.849 152.351 356.468 152.104C355.788 151.677 355.448 151.085 355.448 150.329C355.448 149.438 355.768 148.718 356.406 148.167C357.051 147.616 357.915 147.341 358.999 147.341C360.417 147.341 361.439 147.757 362.066 148.589C362.459 149.116 362.649 149.685 362.638 150.294H361.144C361.114 149.937 360.988 149.611 360.766 149.318C360.402 148.902 359.772 148.694 358.876 148.694C358.278 148.694 357.824 148.809 357.514 149.037C357.209 149.266 357.057 149.567 357.057 149.942C357.057 150.353 357.259 150.681 357.663 150.927C357.897 151.073 358.243 151.202 358.7 151.313L359.746 151.568C360.883 151.844 361.645 152.11 362.031 152.368C362.646 152.772 362.954 153.408 362.954 154.275C362.954 155.113 362.635 155.837 361.996 156.446C361.363 157.056 360.396 157.36 359.096 157.36C357.695 157.36 356.702 157.044 356.116 156.411C355.536 155.772 355.226 154.984 355.185 154.047H356.705Z" fill="#1D252C"/>
<path d="M244.805 43.8H284.805V3.8H244.805V43.8ZM107.249 71.2V74.92H99.8491V99H95.2891V74.92H87.8491V71.2H107.249ZM123.267 76.6C124.947 76.6 126.441 76.96 127.747 77.68C129.081 78.4 130.121 79.4667 130.867 80.88C131.641 82.2933 132.027 84 132.027 86V99H127.507V86.68C127.507 84.7067 127.014 83.2 126.027 82.16C125.041 81.0933 123.694 80.56 121.987 80.56C120.281 80.56 118.921 81.0933 117.907 82.16C116.921 83.2 116.427 84.7067 116.427 86.68V99H111.867V69.4H116.427V79.52C117.201 78.5867 118.174 77.8667 119.347 77.36C120.547 76.8533 121.854 76.6 123.267 76.6ZM158.044 87.44C158.044 88.2667 157.99 89.0133 157.884 89.68H141.044C141.177 91.44 141.83 92.8533 143.004 93.92C144.177 94.9867 145.617 95.52 147.324 95.52C149.777 95.52 151.51 94.4933 152.524 92.44H157.444C156.777 94.4667 155.564 96.1333 153.804 97.44C152.07 98.72 149.91 99.36 147.324 99.36C145.217 99.36 143.324 98.8933 141.644 97.96C139.99 97 138.684 95.6667 137.724 93.96C136.79 92.2267 136.324 90.2267 136.324 87.96C136.324 85.6933 136.777 83.7067 137.684 82C138.617 80.2667 139.91 78.9333 141.564 78C143.244 77.0667 145.164 76.6 147.324 76.6C149.404 76.6 151.257 77.0533 152.884 77.96C154.51 78.8667 155.777 80.1467 156.684 81.8C157.59 83.4267 158.044 85.3067 158.044 87.44ZM153.284 86C153.257 84.32 152.657 82.9733 151.484 81.96C150.31 80.9467 148.857 80.44 147.124 80.44C145.55 80.44 144.204 80.9467 143.084 81.96C141.964 82.9467 141.297 84.2933 141.084 86H153.284ZM184.042 76.6C185.775 76.6 187.322 76.96 188.682 77.68C190.069 78.4 191.149 79.4667 191.922 80.88C192.695 82.2933 193.082 84 193.082 86V99H188.562V86.68C188.562 84.7067 188.069 83.2 187.082 82.16C186.095 81.0933 184.749 80.56 183.042 80.56C181.335 80.56 179.975 81.0933 178.962 82.16C177.975 83.2 177.482 84.7067 177.482 86.68V99H172.922V76.96H177.482V79.48C178.229 78.5733 179.175 77.8667 180.322 77.36C181.495 76.8533 182.735 76.6 184.042 76.6ZM197.378 87.88C197.378 85.6667 197.832 83.7067 198.738 82C199.672 80.2933 200.925 78.9733 202.498 78.04C204.098 77.08 205.858 76.6 207.778 76.6C209.512 76.6 211.018 76.9467 212.298 77.64C213.605 78.3067 214.645 79.1467 215.418 80.16V76.96H220.018V99H215.418V95.72C214.645 96.76 213.592 97.6267 212.258 98.32C210.925 99.0133 209.405 99.36 207.698 99.36C205.805 99.36 204.072 98.88 202.498 97.92C200.925 96.9333 199.672 95.5733 198.738 93.84C197.832 92.08 197.378 90.0933 197.378 87.88ZM215.418 87.96C215.418 86.44 215.098 85.12 214.458 84C213.845 82.88 213.032 82.0267 212.018 81.44C211.005 80.8533 209.912 80.56 208.738 80.56C207.565 80.56 206.472 80.8533 205.458 81.44C204.445 82 203.618 82.84 202.978 83.96C202.365 85.0533 202.058 86.36 202.058 87.88C202.058 89.4 202.365 90.7333 202.978 91.88C203.618 93.0267 204.445 93.9067 205.458 94.52C206.498 95.1067 207.592 95.4 208.738 95.4C209.912 95.4 211.005 95.1067 212.018 94.52C213.032 93.9333 213.845 93.08 214.458 91.96C215.098 90.8133 215.418 89.48 215.418 87.96ZM231.328 80.68V92.88C231.328 93.7067 231.514 94.3067 231.888 94.68C232.288 95.0267 232.954 95.2 233.888 95.2H236.688V99H233.088C231.034 99 229.461 98.52 228.368 97.56C227.274 96.6 226.728 95.04 226.728 92.88V80.68H224.128V76.96H226.728V71.48H231.328V76.96H236.688V80.68H231.328ZM260.851 76.96V99H256.291V96.4C255.571 97.3067 254.624 98.0267 253.451 98.56C252.304 99.0667 251.077 99.32 249.771 99.32C248.037 99.32 246.477 98.96 245.091 98.24C243.731 97.52 242.651 96.4533 241.851 95.04C241.077 93.6267 240.691 91.92 240.691 89.92V76.96H245.211V89.24C245.211 91.2133 245.704 92.7333 246.691 93.8C247.677 94.84 249.024 95.36 250.731 95.36C252.437 95.36 253.784 94.84 254.771 93.8C255.784 92.7333 256.291 91.2133 256.291 89.24V76.96H260.851ZM271.427 80.16C272.094 79.04 272.974 78.1733 274.067 77.56C275.187 76.92 276.507 76.6 278.027 76.6V81.32H276.867C275.081 81.32 273.721 81.7733 272.787 82.68C271.881 83.5867 271.427 85.16 271.427 87.4V99H266.867V76.96H271.427V80.16ZM302.419 87.44C302.419 88.2667 302.365 89.0133 302.259 89.68H285.419C285.552 91.44 286.205 92.8533 287.379 93.92C288.552 94.9867 289.992 95.52 291.699 95.52C294.152 95.52 295.885 94.4933 296.899 92.44H301.819C301.152 94.4667 299.939 96.1333 298.179 97.44C296.445 98.72 294.285 99.36 291.699 99.36C289.592 99.36 287.699 98.8933 286.019 97.96C284.365 97 283.059 95.6667 282.099 93.96C281.165 92.2267 280.699 90.2267 280.699 87.96C280.699 85.6933 281.152 83.7067 282.059 82C282.992 80.2667 284.285 78.9333 285.939 78C287.619 77.0667 289.539 76.6 291.699 76.6C293.779 76.6 295.632 77.0533 297.259 77.96C298.885 78.8667 300.152 80.1467 301.059 81.8C301.965 83.4267 302.419 85.3067 302.419 87.44ZM297.659 86C297.632 84.32 297.032 82.9733 295.859 81.96C294.685 80.9467 293.232 80.44 291.499 80.44C289.925 80.44 288.579 80.9467 287.459 81.96C286.339 82.9467 285.672 84.2933 285.459 86H297.659ZM315.777 87.96C315.777 85.6933 316.23 83.7067 317.137 82C318.07 80.2667 319.35 78.9333 320.977 78C322.604 77.0667 324.47 76.6 326.577 76.6C329.244 76.6 331.444 77.24 333.177 78.52C334.937 79.7733 336.124 81.5733 336.737 83.92H331.817C331.417 82.8267 330.777 81.9733 329.897 81.36C329.017 80.7467 327.91 80.44 326.577 80.44C324.71 80.44 323.217 81.1067 322.097 82.44C321.004 83.7467 320.457 85.5867 320.457 87.96C320.457 90.3333 321.004 92.1867 322.097 93.52C323.217 94.8533 324.71 95.52 326.577 95.52C329.217 95.52 330.964 94.36 331.817 92.04H336.737C336.097 94.28 334.897 96.0667 333.137 97.4C331.377 98.7067 329.19 99.36 326.577 99.36C324.47 99.36 322.604 98.8933 320.977 97.96C319.35 97 318.07 95.6667 317.137 93.96C316.23 92.2267 315.777 90.2267 315.777 87.96ZM339.761 87.88C339.761 85.6667 340.215 83.7067 341.121 82C342.055 80.2933 343.308 78.9733 344.881 78.04C346.481 77.08 348.241 76.6 350.161 76.6C351.895 76.6 353.401 76.9467 354.681 77.64C355.988 78.3067 357.028 79.1467 357.801 80.16V76.96H362.401V99H357.801V95.72C357.028 96.76 355.975 97.6267 354.641 98.32C353.308 99.0133 351.788 99.36 350.081 99.36C348.188 99.36 346.455 98.88 344.881 97.92C343.308 96.9333 342.055 95.5733 341.121 93.84C340.215 92.08 339.761 90.0933 339.761 87.88ZM357.801 87.96C357.801 86.44 357.481 85.12 356.841 84C356.228 82.88 355.415 82.0267 354.401 81.44C353.388 80.8533 352.295 80.56 351.121 80.56C349.948 80.56 348.855 80.8533 347.841 81.44C346.828 82 346.001 82.84 345.361 83.96C344.748 85.0533 344.441 86.36 344.441 87.88C344.441 89.4 344.748 90.7333 345.361 91.88C346.001 93.0267 346.828 93.9067 347.841 94.52C348.881 95.1067 349.975 95.4 351.121 95.4C352.295 95.4 353.388 95.1067 354.401 94.52C355.415 93.9333 356.228 93.08 356.841 91.96C357.481 90.8133 357.801 89.48 357.801 87.96ZM379.511 76.6C381.244 76.6 382.791 76.96 384.151 77.68C385.537 78.4 386.617 79.4667 387.391 80.88C388.164 82.2933 388.551 84 388.551 86V99H384.031V86.68C384.031 84.7067 383.537 83.2 382.551 82.16C381.564 81.0933 380.217 80.56 378.511 80.56C376.804 80.56 375.444 81.0933 374.431 82.16C373.444 83.2 372.951 84.7067 372.951 86.68V99H368.391V76.96H372.951V79.48C373.697 78.5733 374.644 77.8667 375.791 77.36C376.964 76.8533 378.204 76.6 379.511 76.6ZM392.847 87.88C392.847 85.6667 393.301 83.7067 394.207 82C395.141 80.2933 396.394 78.9733 397.967 78.04C399.567 77.08 401.341 76.6 403.287 76.6C404.727 76.6 406.141 76.92 407.527 77.56C408.941 78.1733 410.061 79 410.887 80.04V69.4H415.487V99H410.887V95.68C410.141 96.7467 409.101 97.6267 407.767 98.32C406.461 99.0133 404.954 99.36 403.247 99.36C401.327 99.36 399.567 98.88 397.967 97.92C396.394 96.9333 395.141 95.5733 394.207 93.84C393.301 92.08 392.847 90.0933 392.847 87.88ZM410.887 87.96C410.887 86.44 410.567 85.12 409.927 84C409.314 82.88 408.501 82.0267 407.487 81.44C406.474 80.8533 405.381 80.56 404.207 80.56C403.034 80.56 401.941 80.8533 400.927 81.44C399.914 82 399.087 82.84 398.447 83.96C397.834 85.0533 397.527 86.36 397.527 87.88C397.527 89.4 397.834 90.7333 398.447 91.88C399.087 93.0267 399.914 93.9067 400.927 94.52C401.967 95.1067 403.061 95.4 404.207 95.4C405.381 95.4 406.474 95.1067 407.487 94.52C408.501 93.9333 409.314 93.08 409.927 91.96C410.567 90.8133 410.887 89.48 410.887 87.96ZM426.037 69.4V99H421.477V69.4H426.037ZM452.223 87.44C452.223 88.2667 452.17 89.0133 452.063 89.68H435.223C435.357 91.44 436.01 92.8533 437.183 93.92C438.357 94.9867 439.797 95.52 441.503 95.52C443.957 95.52 445.69 94.4933 446.703 92.44H451.623C450.957 94.4667 449.743 96.1333 447.983 97.44C446.25 98.72 444.09 99.36 441.503 99.36C439.397 99.36 437.503 98.8933 435.823 97.96C434.17 97 432.863 95.6667 431.903 93.96C430.97 92.2267 430.503 90.2267 430.503 87.96C430.503 85.6933 430.957 83.7067 431.863 82C432.797 80.2667 434.09 78.9333 435.743 78C437.423 77.0667 439.343 76.6 441.503 76.6C443.583 76.6 445.437 77.0533 447.063 77.96C448.69 78.8667 449.957 80.1467 450.863 81.8C451.77 83.4267 452.223 85.3067 452.223 87.44ZM447.463 86C447.437 84.32 446.837 82.9733 445.663 81.96C444.49 80.9467 443.037 80.44 441.303 80.44C439.73 80.44 438.383 80.9467 437.263 81.96C436.143 82.9467 435.477 84.2933 435.263 86H447.463Z" fill="#1D252C"/>
</svg>
